Coordinates
version=1
nRows=19
nColumns=36
inDegrees=yes

Units are S.I. units (second, meters, Newtons, ...)
If the header above contains a line with 'inDegrees', this indicates whether rotational values are in degrees (yes) or radians (no).

endheader
time	pelvis_tilt	pelvis_list	pelvis_rotation	pelvis_tx	pelvis_ty	pelvis_tz	hip_flexion_r	hip_adduction_r	hip_rotation_r	knee_angle_r	knee_angle_r_beta	ankle_angle_r	subtalar_angle_r	mtp_angle_r	hip_flexion_l	hip_adduction_l	hip_rotation_l	knee_angle_l	knee_angle_l_beta	ankle_angle_l	subtalar_angle_l	mtp_angle_l	lumbar_extension	lumbar_bending	lumbar_rotation	arm_flex_r	arm_add_r	arm_rot_r	elbow_flex_r	pro_sup_r	arm_flex_l	arm_add_l	arm_rot_l	elbow_flex_l	pro_sup_l
      1.05000000	      4.21433859	      0.58233941	      6.46021378	      1.11725077	      1.04366794	     -0.20326407	     19.00601385	     -0.52381173	     -8.46790554	      7.40598710	      0.12925886	      3.58977064	      5.78790887	     -7.19228843	    -13.13276644	      4.37087618	      6.69190400	      6.40221639	      0.11173976	     17.91327366	      7.53494084	     -7.19228843	     -8.50413281	     -1.17892935	    -10.78369020	    -11.27216549	     -6.76825909	     -4.86395800	     27.72558529	    102.35899257	     15.74491831	    -16.86301769	      7.69290217	     56.62504101	     95.08766909
      1.06000000	      3.79562341	      0.60389662	      6.56891041	      1.13010088	      1.04106332	     -0.20274899	     18.86643484	     -0.42693171	     -8.95185968	      4.13857670	      0.07223179	      4.00122266	      7.05848562	     -7.19564485	    -13.21799208	      4.31105375	      6.70024954	      6.94162792	      0.12115426	     18.60337519	      7.52919272	     -7.19564485	     -7.97884021	     -1.21971934	    -10.93130714	    -11.56911028	     -6.71048159	     -4.96731002	     27.52042543	    102.32468668	     15.91709958	    -17.00414380	      7.81066039	     57.41764554	     95.09412509
      1.07000000	      3.58368895	      0.56729140	      6.75351556	      1.14307426	      1.03872733	     -0.20222043	     18.72606623	     -0.33604668	    -10.41202641	      1.69436574	      0.02957226	      4.94856453	      9.36444576	     -7.20917587	    -13.46488431	      4.10187598	      6.41809714	      7.57197657	      0.13215592	     19.58658096	      8.36331213	     -7.20917587	     -7.73339556	     -1.15349046	    -11.31111123	    -11.68745702	     -6.62749155	     -5.20359967	     27.27034973	    102.22122128	     15.79427039	    -17.24399363	      7.59636489	     58.68921693	     94.88543204
      1.08000000	      3.13715599	      0.60183737	      6.80372729	      1.15581123	      1.03604905	     -0.20155153	     19.30586213	     -0.38686518	    -11.85848817	      0.63446825	      0.01107356	      6.47733313	     11.67576866	     -7.22220892	    -13.40749785	      4.07077249	      6.40733110	      8.31742524	      0.14516646	     20.25014974	      8.35609484	     -7.22220892	     -7.22121275	     -1.21222912	    -11.43881673	    -11.83878771	     -6.57097182	     -5.30656297	     27.03273846	    102.13011993	     15.78979651	    -17.38078468	      7.58786966	     59.58279566	     94.73253852
      1.09000000	      2.72508889	      0.62703584	      6.82594066	      1.16859228	      1.03350772	     -0.20086225	     20.00727755	     -0.46488338	    -13.15624387	      0.37976580	      0.00662816	      8.11409851	     13.77318989	     -7.23347466	    -13.36389980	      4.04508528	      6.51728797	      9.10502792	      0.15891272	     20.71151820	      8.07860232	     -7.23347466	     -6.75798212	     -1.24270739	    -11.54878574	    -11.95217361	     -6.51571697	     -5.46143857	     26.84518087	    102.03174877	     15.72599349	    -17.49550543	      7.55160206	     60.41483905	     94.66351637
      1.10000000	      2.45592249	      0.59419635	      6.87345254	      1.18156516	      1.03131098	     -0.20020750	     20.40230300	     -0.44672035	    -13.53373822	      0.30608205	      0.00534214	      9.20812322	     14.66421426	     -7.24026730	    -13.44493570	      3.92833018	      6.64632889	      9.93717422	      0.17343641	     21.04179344	      7.74894042	     -7.24026730	     -6.43480228	     -1.17971861	    -11.63688138	    -12.05271196	     -6.50578211	     -5.60814927	     26.70358415	    101.95082191	     15.65756882	    -17.54865374	      7.55996205	     61.14005541	     94.67839912
      1.11000000	      2.46731075	      0.44596643	      6.93478299	      1.19493165	      1.02972587	     -0.19953655	     20.28913235	     -0.24054904	    -13.29621258	      0.29480454	      0.00514531	      9.63842485	     14.75921620	     -7.24163425	    -13.82205593	      3.63925651	      6.76118838	     10.78254843	      0.18819097	     21.10471325	      7.51203090	     -7.24163425	     -6.38521815	     -0.94499684	    -11.59980678	    -12.17500825	     -6.50017346	     -5.65668575	     26.58202509	    101.92221819	     15.67912492	    -17.44967746	      7.58522119	     61.53204283	     94.71363286
      1.12000000	      2.62202000	      0.23608822	      7.07945088	      1.20865592	      1.02847025	     -0.19895063	     19.82974838	      0.03269635	    -12.73464818	      0.34979351	      0.00610505	      9.82929864	     14.61893488	     -7.24348320	    -14.26731710	      3.23908198	      6.82532760	     11.81134135	      0.20614680	     21.23320319	      7.13946196	     -7.24348320	     -6.44446059	     -0.62743910	    -11.72401795	    -12.24096813	     -6.51148108	     -5.77072026	     26.50310041	    101.87396548	     15.53430858	    -17.40158476	      7.60839865	     61.98840532	     94.75839914
      1.13000000	      2.97466518	     -0.03977672	      7.24202896	      1.22273641	      1.02765193	     -0.19833948	     18.99109412	      0.45562030	    -11.45695992	      0.45743943	      0.00798382	      9.38670765	     13.22031052	     -7.24792495	    -14.90079780	      2.72244190	      6.78755002	     12.87681683	      0.22474285	     21.23214142	      6.68840107	     -7.24792495	     -6.72507918	     -0.18003714	    -11.94835409	    -12.23034487	     -6.50550093	     -6.02781609	     26.50471723	    101.78688583	     15.11242329	    -17.37599081	      7.38105892	     62.71347256	     94.83618127
      1.14000000	      3.19220452	     -0.29740575	      7.29529832	      1.23704438	      1.02685128	     -0.19755323	     18.19586332	      0.95248241	     -8.99171949	      0.63432787	      0.01107111	      8.26953825	     10.17438489	     -7.25833877	    -15.38174160	      2.26219034	      6.73965206	     13.95660041	      0.24358863	     20.80448864	      6.40455245	     -7.25833877	     -6.81527359	      0.20606632	    -12.12037399	    -12.21769753	     -6.52318835	     -6.26881958	     26.54759989	    101.67480198	     14.56664635	    -17.19076427	      6.84793684	     63.27897138	     94.94416518
      1.15000000	      3.57589218	     -0.62505112	      7.39886368	      1.25172949	      1.02647491	     -0.19680019	     17.24469743	      1.51089323	     -7.57185425	      1.00900623	      0.01761048	      7.42378778	      8.53906966	     -7.26696703	    -15.96769170	      1.67343125	      6.51522480	     15.15936401	      0.26458081	     20.24609730	      6.14026969	     -7.26696703	     -7.03841604	      0.70103750	    -12.15782483	    -12.27101511	     -6.58293480	     -6.31592254	     26.57235688	    101.59484049	     14.12375937	    -16.99868873	      6.72637327	     63.56744415	     95.04453665
      1.16000000	      3.87287746	     -0.95518161	      7.48432205	      1.26665757	      1.02616534	     -0.19595165	     16.41792559	      2.08511965	     -6.48941566	      1.50589955	      0.02628291	      6.69264105	      7.32626806	     -7.27439458	    -16.36053186	      1.07993001	      6.13541281	     16.53670933	      0.28862003	     19.48476692	      5.88709414	     -7.27439458	     -7.11009288	      1.17712975	    -12.21318426	    -12.32536103	     -6.64428981	     -6.37673010	     26.61548575	    101.52875044	     13.56073823	    -16.79499660	      6.56100230	     63.68878662	     95.12779220
      1.17000000	      4.14263109	     -1.28033773	      7.56164085	      1.28180487	      1.02606044	     -0.19498814	     15.54221828	      2.70957441	     -5.42493513	      1.83272120	      0.03198702	      5.79395017	      5.88780165	     -7.28521171	    -16.64296820	      0.47088019	      5.66886196	     18.03837953	      0.31482911	     18.56515584	      5.78563931	     -7.28521171	     -7.12595378	      1.63622688	    -12.28981059	    -12.34384883	     -6.69351794	     -6.38544034	     26.64998875	    101.48411975	     12.87428939	    -16.56542618	      6.32949400	     63.73690298	     95.27706312
      1.18000000	      4.41464762	     -1.58631772	      7.69282487	      1.29714093	      1.02623552	     -0.19409885	     14.66117366	      3.27589192	     -5.31413427	      2.07629352	      0.03623816	      5.14346569	      5.75815402	     -7.28744616	    -16.78086496	     -0.15706583	      5.07551014	     19.74578096	      0.34462889	     17.27361344	      5.59014361	     -7.28744616	     -7.10014611	      2.07440684	    -12.30365633	    -12.42196855	     -6.74949889	     -6.38347854	     26.68214282	    101.43372871	     12.24327870	    -16.30519260	      6.37683437	     63.55790095	     95.26163236
      1.19000000	      4.64478646	     -1.94107319	      7.70644862	      1.31261354	      1.02659975	     -0.19290320	     13.74048452	      3.97574115	     -4.72906594	      2.04346908	      0.03566526	      3.47647414	      4.64069423	     -7.29371274	    -16.80531068	     -0.85662211	      4.26700797	     21.52338944	      0.37565401	     15.82327464	      5.79969799	     -7.29371274	     -7.01560883	      2.55538199	    -12.28650137	    -12.44218517	     -6.81283907	     -6.34406445	     26.75385421	    101.45283786	     11.40263584	    -15.99461998	      6.08496880	     63.40902877	     95.36526500
      1.20000000	      4.87606677	     -2.25474486	      7.74429851	      1.32806797	      1.02720723	     -0.19173124	     12.83480857	      4.58210256	     -4.74793695	      2.03320123	      0.03548606	      2.43190145	      4.48012047	     -7.29576301	    -16.61594941	     -1.55439348	      3.38154062	     23.62398991	      0.41231641	     14.04515722	      5.78684778	     -7.29576301	     -6.91817671	      2.98141720	    -12.23900175	    -12.42557968	     -6.86442770	     -6.31204546	     26.79434699	    101.45908617	     10.61431349	    -15.72954613	      6.10877128	     63.01802778	     95.37048367
      1.21000000	      5.05201414	     -2.60472785	      7.69417564	      1.34350472	      1.02794354	     -0.19037234	     12.02513163	      5.22214815	     -4.76622143	      2.04737187	      0.03573338	      0.97183493	      4.19394156	     -7.29815713	    -16.20325140	     -2.32685163	      2.30687797	     25.94760465	      0.45287113	     12.02360656	      5.94801825	     -7.29815713	     -6.74644159	      3.44037651	    -12.08742673	    -12.40391367	     -6.93319609	     -6.25182646	     26.85524376	    101.46728266	      9.78251944	    -15.40490604	      6.04025382	     62.52423305	     95.36790115
      1.22000000	      5.20660983	     -2.94646764	      7.59079703	      1.35868953	      1.02885628	     -0.18891755	     11.26973160	      5.83008430	     -4.70021169	      2.14862635	      0.03750060	     -0.38183515	      3.86898364	     -7.30097989	    -15.54342560	     -3.13041310	      1.18271619	     28.59446750	      0.49906761	      9.85738721	      6.17092188	     -7.30097989	     -6.59708558	      3.88987783	    -11.85525709	    -12.32669409	     -7.00242040	     -6.16288915	     26.93671383	    101.42482583	      8.97790742	    -15.04980425	      5.96557059	     61.92975766	     95.32225962
      1.23000000	      5.35810911	     -3.29931852	      7.43159577	      1.37355571	      1.02990713	     -0.18732662	     10.55954869	      6.43859391	     -4.53774395	      2.35661907	      0.04113076	     -1.53894040	      3.49429185	     -7.30391156	    -14.66979143	     -3.98075171	      0.08211632	     31.52654829	      0.55024207	      7.56336540	      6.36535739	     -7.30391156	     -6.47947353	      4.32563986	    -11.52292332	    -12.18735816	     -7.06869986	     -6.04063911	     27.03354059	    101.38356661	      8.21275464	    -14.66310714	      5.90954935	     61.22966875	     95.27023938
